#!OML:ASF E:\Steps\Project 1\Capture day 1\Session 2\Subject.ASF
:FULLY-SPECIFIED
:DEGREES
220
root 8.88332 16.25 31.589 -157.339 -2.64513 176.234
lowerback -23.573 -2.14486 -7.89727
upperback -0.616914 -0.917547 -1.43861
thorax 12.6629 -1.02295 2.54139
lowerneck 0.0484947 -0.87359 -3.87552
upperneck -16.4668 -1.36282 8.97285
head -4.82088 -1.48471 3.54334
rclavicle 1.39149e-015 -3.53837e-014
rhumerus -30.9974 -17.5102 -82.3153
rradius 29.1923
rwrist -0.804343
rhand -6.77339 -52.7205
rfingers 7.12502
rthumb 19.0888 -81.8038
lclavicle 1.39149e-015 -3.53837e-014
lhumerus -25.9523 1.35786 84.6275
lradius 21.9141
lwrist -7.26821
lhand -22.1821 -13.2619
lfingers 7.12502
lthumb 4.23295 16.6758
rfemur -22.1468 8.26144 15.4497
rtibia 12.3455
rfoot -22.3357 -10.6944
rtoes -31.1545
lfemur -23.8318 -11.0038 -23.5463
ltibia 14.6076
lfoot -12.6756 1.3408
ltoes -39.2701
221
root 8.8864 16.2519 31.593 -157.169 -2.64043 176.268
lowerback -23.5222 -2.24673 -7.89115
upperback -0.687912 -1.07947 -1.31259
thorax 12.5713 -1.09749 2.62836
lowerneck 0.336894 -0.757003 -4.08262
upperneck -16.456 -1.19892 8.89313
head -4.87698 -1.38047 3.54994
rclavicle -2.08724e-015 -6.79844e-014
rhumerus -31.113 -17.3125 -82.1201
rradius 28.9997
rwrist -0.642812
rhand -6.84964 -53.1749
rfingers 7.12502
rthumb 19.0154 -82.2654
lclavicle -2.08724e-015 -6.79844e-014
lhumerus -26.3878 0.649052 84.8403
lradius 22.2727
lwrist -6.64182
lhand -22.5955 -13.4394
lfingers 7.12502
lthumb 3.83373 16.5059
rfemur -22.4762 8.29696 15.4631
rtibia 12.5529
rfoot -22.4391 -10.8062
rtoes -31.6192
lfemur -24.1572 -11.0795 -23.4148
ltibia 14.8752
lfoot -12.9004 1.35007
ltoes -39.0319
222
root 8.89039 16.2529 31.596 -156.947 -2.67755 176.301
lowerback -23.514 -2.27782 -7.87283
upperback -0.715648 -1.13458 -1.25736
thorax 12.5412 -1.12213 2.66271
lowerneck 0.429227 -0.732226 -4.1145
upperneck -16.4631 -1.16516 8.84565
head -4.89757 -1.35754 3.54018
rclavicle 1.6201e-014 1.11319e-014
rhumerus -31.138 -17.6405 -81.8609
rradius 28.6568
rwrist -0.208162
rhand -6.77496 -52.6299
rfingers 7.12502
rthumb 19.0872 -81.7134
lclavicle 1.6201e-014 1.11319e-014
lhumerus -26.4202 1.07876 84.5143
lradius 22.4623
lwrist -7.76582
lhand -21.0567 -12.7238
lfingers 7.12502
lthumb 5.31957 17.1895
rfemur -22.8378 8.2528 15.484
rtibia 12.745
rfoot -22.5231 -10.839
rtoes -31.8795
lfemur -24.4795 -11.184 -23.2752
ltibia 15.0343
lfoot -12.9948 1.4114
ltoes -38.9973
223
root 8.8931 16.2544 31.5997 -156.795 -2.5458 176.319
lowerback -23.4103 -2.22972 -7.85483
upperback -0.707141 -1.08259 -1.25315
thorax 12.4876 -1.09445 2.67739
lowerneck 0.294395 -0.717877 -4.16054
upperneck -16.3015 -1.14601 8.80408
head -4.8265 -1.33256 3.52819
rclavicle 1.09332e-015 -3.89618e-014
rhumerus -31.2157 -17.7336 -81.6974
rradius 28.4458
rwrist -0.0217723
rhand -6.55948 -51.7498
rfingers 7.12502
rthumb 19.2944 -80.8126
lclavicle 1.09332e-015 -3.89618e-014
lhumerus -26.4606 0.763934 84.5923
lradius 22.3526
lwrist -6.93282
lhand -21.5893 -12.9011
lfingers 7.12502
lthumb 4.80532 17.0244
rfemur -23.1701 8.27489 15.4502
rtibia 12.9577
rfoot -22.5951 -10.7358
rtoes -32.0159
lfemur -24.6713 -11.1848 -23.2253
ltibia 15.0218
lfoot -12.9163 1.60425
ltoes -40.1404
224
root 8.89467 16.2554 31.6046 -156.594 -2.37495 176.347
lowerback -23.393 -2.18527 -7.83815
upperback -0.691133 -1.02773 -1.24154
thorax 12.4906 -1.06798 2.7001
lowerneck 0.226963 -0.695513 -4.14075
upperneck -16.2604 -1.11853 8.77393
head -4.80487 -1.31658 3.51256
rclavicle 1.6201e-014 2.3059e-014
rhumerus -31.3309 -17.4552 -81.6631
rradius 28.4067
rwrist -0.209151
rhand -6.56721 -51.9523
rfingers 7.12502
rthumb 19.287 -81.0158
lclavicle 1.6201e-014 2.3059e-014
lhumerus -26.3162 1.07012 84.3842
lradius 22.1343
lwrist -7.10147
lhand -20.948 -12.7924
lfingers 7.12502
lthumb 5.42453 17.1182
rfemur -23.5564 8.38215 15.3908
rtibia 13.1126
rfoot -22.7194 -10.6905
rtoes -32.1554
lfemur -24.8789 -11.4145 -23.099
ltibia 14.9699
lfoot -12.8917 1.90581
ltoes -40.2392
225
root 8.89755 16.2592 31.6082 -156.386 -2.38873 176.337
lowerback -23.3682 -2.20929 -7.87972
upperback -0.675919 -1.05088 -1.19971
thorax 12.499 -1.08159 2.76382
lowerneck 0.394111 -0.732306 -4.13739
upperneck -16.415 -1.16232 8.85552
head -4.87666 -1.35307 3.54539
rclavicle -1.11319e-014 -6.87795e-014
rhumerus -31.4432 -17.4546 -81.4456
rradius 28.2027
rwrist -0.137127
rhand -6.6647 -52.1155
rfingers 7.12502
rthumb 19.1933 -81.1884
lclavicle -1.11319e-014 -6.87795e-014
lhumerus -26.3486 1.0165 84.3071
lradius 21.9443
lwrist -7.94695
lhand -21.5417 -13.2231
lfingers 7.12502
lthumb 4.85133 16.7013
rfemur -23.8478 8.52954 15.3137
rtibia 13.1667
rfoot -22.7484 -10.871
rtoes -31.9426
lfemur -25.1558 -11.5716 -23.0003
ltibia 15.0392
lfoot -12.991 1.9504
ltoes -39.8871
226
root 8.89997 16.2635 31.6096 -156.213 -2.47182 176.331
lowerback -23.2099 -2.2421 -7.8949
upperback -0.710765 -1.11146 -1.15704
thorax 12.3783 -1.10676 2.8044
lowerneck 0.522924 -0.729559 -4.14491
upperneck -16.3679 -1.14599 8.86864
head -4.88491 -1.34079 3.55017
rclavicle -1.19271e-014 -2.38542e-015
rhumerus -31.7511 -17.6231 -81.0948
rradius 27.9699
rwrist 0.158681
rhand -6.51525 -51.3134
rfingers 7.12502
rthumb 19.337 -80.372
lclavicle -1.19271e-014 -2.38542e-015
lhumerus -26.7522 0.788345 84.148
lradius 22.4491
lwrist -8.27045
lhand -20.8374 -13.2058
lfingers 7.12502
lthumb 5.53137 16.702
rfemur -24.1068 8.36989 15.3226
rtibia 13.3398
rfoot -22.8072 -10.7932
rtoes -31.6129
lfemur -25.441 -11.5895 -22.9365
ltibia 15.1942
lfoot -13.077 1.91608
ltoes -40.5983
227
root 8.9033 16.2656 31.6095 -156.06 -2.53187 176.338
lowerback -23.0301 -2.25306 -7.87377
upperback -0.736488 -1.15054 -1.14307
thorax 12.2527 -1.11878 2.79945
lowerneck 0.531747 -0.706217 -4.14604
upperneck -16.1592 -1.10237 8.82136
head -4.82582 -1.30154 3.52803
rclavicle 2.01766e-014 -3.61788e-014
rhumerus -32.1039 -17.5794 -80.8921
rradius 27.8696
rwrist 0.214105
rhand -6.43982 -50.9331
rfingers 7.12502
rthumb 19.4095 -79.9844
lclavicle 2.01766e-014 -3.61788e-014
lhumerus -27.1644 0.280797 84.0193
lradius 22.9888
lwrist -8.05275
lhand -20.1691 -13.3156
lfingers 7.12502
lthumb 6.17657 16.5744
rfemur -24.3351 8.04086 15.3929
rtibia 13.5125
rfoot -22.9039 -10.5565
rtoes -31.6912
lfemur -25.6952 -11.6383 -22.8551
ltibia 15.3533
lfoot -13.1572 1.95273
ltoes -41.7149
228
root 8.90736 16.2653 31.611 -155.96 -2.49869 176.29
lowerback -22.8485 -2.25325 -7.90545
upperback -0.707547 -1.15114 -1.15786
thorax 12.1859 -1.11664 2.80396
lowerneck 0.593789 -0.672308 -4.13816
upperneck -16.0857 -1.05129 8.76951
head -4.81799 -1.26759 3.507
rclavicle 1.08338e-014 -1.31198e-014
rhumerus -32.2494 -17.7399 -80.6762
rradius 27.525
rwrist 0.536221
rhand -6.48336 -50.7877
rfingers 7.12502
rthumb 19.3676 -79.8432
lclavicle 1.08338e-014 -1.31198e-014
lhumerus -27.4393 -0.282674 83.9495
lradius 23.2509
lwrist -7.68147
lhand -20.2463 -13.4013
lfingers 7.12502
lthumb 6.10205 16.4908
rfemur -24.5766 8.3731 15.2679
rtibia 13.7957
rfoot -23.1007 -10.8246
rtoes -31.21
lfemur -25.8628 -11.7472 -22.8335
ltibia 15.44
lfoot -13.3248 2.00421
ltoes -41.8216
229
root 8.90962 16.2649 31.6154 -155.914 -2.37545 176.184
lowerback -22.5471 -2.24373 -7.99748
upperback -0.654548 -1.12873 -1.18866
thorax 12.0788 -1.10477 2.83443
lowerneck 0.584229 -0.6322 -4.14606
upperneck -16.0091 -0.998222 8.69819
head -4.79731 -1.23097 3.48167
rclavicle 3.37934e-015 1.35174e-014
rhumerus -32.3235 -18.1381 -80.3774
rradius 27.0138
rwrist 1.21722
rhand -6.59966 -50.3732
rfingers 7.12502
rthumb 19.2558 -79.4399
lclavicle 3.37934e-015 1.35174e-014
lhumerus -27.6537 -0.798398 83.9542
lradius 23.3519
lwrist -7.54601
lhand -20.6626 -12.8667
lfingers 7.12502
lthumb 5.70015 17.0366
rfemur -24.823 9.07268 14.9799
rtibia 14.1795
rfoot -23.4026 -11.3967
rtoes -30.6883
lfemur -25.9973 -11.7664 -22.936
ltibia 15.5686
lfoot -13.5417 2.13603
ltoes -42.3605
230
root 8.91521 16.2626 31.617 -155.897 -2.32571 176.103
lowerback -22.1684 -2.23048 -8.09277
upperback -0.598861 -1.10708 -1.22043
thorax 11.9314 -1.09141 2.86691
lowerneck 0.539672 -0.690463 -4.10099
upperneck -15.9166 -1.07368 8.68204
head -4.75679 -1.26429 3.4689
rclavicle -7.65321e-015 -2.26615e-014
rhumerus -32.5173 -18.2825 -80.1618
rradius 26.7098
rwrist 1.51071
rhand -7.07148 -50.3631
rfingers 7.12502
rthumb 18.8021 -79.4744
lclavicle -7.65321e-015 -2.26615e-014
lhumerus -27.8613 -1.31316 83.883
lradius 23.353
lwrist -6.79887
lhand -19.3881 -11.4017
lfingers 7.12502
lthumb 6.93048 18.4648
rfemur -24.8443 9.71381 14.7731
rtibia 14.2457
rfoot -23.5806 -12.0919
rtoes -31.0211
lfemur -26.089 -11.7953 -23.0093
ltibia 15.7055
lfoot -13.6926 2.42964
ltoes -43.9707
231
root 8.92343 16.2577 31.619 -155.877 -2.36153 176.107
lowerback -21.8211 -2.17873 -8.10607
upperback -0.525482 -1.04915 -1.25441
thorax 11.8156 -1.05682 2.86108
lowerneck 0.554787 -0.807372 -3.92927
upperneck -15.9462 -1.22706 8.694
head -4.75935 -1.35333 3.45034
rclavicle 1.59028e-015 -8.34896e-015
rhumerus -32.762 -18.448 -79.9273
rradius 26.4803
rwrist 1.55864
rhand -7.41939 -49.7297
rfingers 7.12502
rthumb 18.4674 -78.8731
lclavicle 1.59028e-015 -8.34896e-015
lhumerus -28.1921 -2.31254 83.8812
lradius 23.5532
lwrist -5.80785
lhand -20.9769 -12.6082
lfingers 7.12502
lthumb 5.39669 17.303
rfemur -24.7638 10.2566 14.7044
rtibia 14.0821
rfoot -23.6032 -12.6514
rtoes -31.3724
lfemur -26.1973 -11.9091 -22.9267
ltibia 15.8241
lfoot -13.7765 2.56924
ltoes -44.2338
232
root 8.93017 16.2556 31.6258 -155.696 -2.47326 176.202
lowerback -21.6424 -2.12135 -7.96492
upperback -0.457164 -1.00781 -1.28978
thorax 11.7867 -1.02459 2.75719
lowerneck 0.505273 -0.849228 -3.71617
upperneck -15.9193 -1.2843 8.61568
head -4.74181 -1.3882 3.39067
rclavicle 9.24349e-015 -1.59028e-015
rhumerus -33.002 -18.973 -79.6243
rradius 26.1656
rwrist 1.96772
rhand -7.28258 -46.8197
rfingers 7.12502
rthumb 18.599 -75.9506
lclavicle 9.24349e-015 -1.59028e-015
lhumerus -28.3788 -3.05953 83.6769
lradius 23.7124
lwrist -5.54968
lhand -20.8714 -11.7441
lfingers 7.12502
lthumb 5.49849 18.1645
rfemur -24.9775 9.94593 14.8539
rtibia 14.0107
rfoot -23.6352 -12.3734
rtoes -31.6465
lfemur -26.5944 -11.923 -22.6885
ltibia 16.0723
lfoot -13.8918 2.3509
ltoes -43.1705
233
root 8.93613 16.2573 31.6348 -155.403 -2.63291 176.308
lowerback -21.5376 -2.25081 -7.80106
upperback -0.416949 -1.22921 -1.15792
thorax 11.7987 -1.11791 2.74414
lowerneck 0.403451 -0.691978 -3.91392
upperneck -15.7732 -1.08859 8.43687
head -4.69329 -1.25845 3.3557
rclavicle 2.38542e-015 1.70955e-014
rhumerus -33.1304 -19.0287 -79.2533
rradius 25.7887
rwrist 2.51181
rhand -7.82173 -46.2117
rfingers 7.12502
rthumb 18.0804 -75.3913
lclavicle 2.38542e-015 1.70955e-014
lhumerus -28.5233 -2.87467 83.3859
lradius 23.7451
lwrist -5.84335
lhand -19.915 -11.8784
lfingers 7.12502
lthumb 6.42187 18.0042
rfemur -25.5032 9.07769 15.1141
rtibia 14.3005
rfoot -23.8887 -11.6817
rtoes -31.7887
lfemur -27.1425 -11.8509 -22.4249
ltibia 16.3779
lfoot -14.0237 2.01894
ltoes -42.1668
